<svg width="1080" height="1920" viewBox="0 0 1080 1920" fill="none" xmlns="http://www.w3.org/2000/svg">
<g clip-path="url(#clip0_61_2)">
<rect width="1080" height="1920" fill="#2C3439"/>
<path d="M1104.08 -42H21.6838V1883H1104.08V-42Z" fill="#2C3439"/>
<path d="M28.5853 -156C67.8259 -131.157 104.809 -101.797 142.14 -74.1745C168.358 -54.5433 197.528 -31.6113 218.017 -3.64127C223.225 3.30783 227.74 10.6044 231.733 18.0746C241.804 37.7058 247.534 62.2014 242.672 84.7859C236.595 113.798 213.502 133.777 195.792 156.014C167.664 191.281 158.808 235.755 161.587 280.055C162.976 301.424 166.622 322.966 171.31 343.813C189.02 422.164 173.741 513.545 111.06 569.311C72.3403 603.883 19.0357 616.391 -31.8382 627.51C-55.7992 632.721 -79.7603 638.107 -103.721 643.319C-130.634 649.226 -161.193 657.912 -173 682.755" fill="#363F44"/>
<path d="M-38.7834 432.067C-4.05729 446.834 52.8936 437.8 87.4461 424.075C127.034 408.44 158.114 374.042 178.95 337.907C204.994 292.911 220.447 242.878 239.547 194.756C271.147 115.015 317.507 38.0536 388.696 -11.9798C470.823 -69.831 575.522 -75.3902 671.714 -90.6782" stroke="#737B7F" stroke-width="2.128" stroke-miterlimit="10" stroke-linecap="round" stroke-linejoin="round"/>
<path d="M522.406 1887.13C529.525 1841.61 557.132 1799.74 596.199 1775.42C635.266 1751.1 685.098 1744.84 729.026 1758.57C754.377 1766.56 778.511 1780.98 805.077 1781.5C837.719 1782.2 867.757 1761.17 887.204 1734.94C906.651 1708.53 917.589 1677.26 929.917 1646.86C947.454 1603.43 968.637 1560.35 1001.45 1526.82C1034.27 1493.29 1080.28 1470.18 1126.99 1474.52L1099.73 1936.29L522.406 1887.13Z" fill="#363F44"/>
<path d="M606.27 2010.65C615.993 1940.81 632.314 1866.8 672.944 1807.91C692.39 1779.94 717.914 1756.48 749.689 1743.63C791.013 1726.78 837.719 1737.2 880.953 1730.42C937.731 1721.39 976.798 1681.61 998.154 1629.66C1001.45 1621.85 1004.23 1613.51 1003.54 1604.99C1002.84 1596.48 997.46 1587.97 989.125 1586.06C978.881 1583.63 968.637 1592.49 966.033 1602.74C963.428 1612.99 966.38 1623.58 970.026 1633.49C976.971 1652.77 987.216 1672.23 1005.1 1682.48C1014.3 1687.86 1024.89 1690.12 1035.31 1692.55C1055.63 1697.07 1076.11 1701.59 1096.43 1706.1C1113.97 1710.1 1131.85 1714.09 1147.13 1723.65C1162.41 1733.2 1174.74 1749.36 1174.56 1767.43" stroke="#737B7F" stroke-width="2.128" stroke-miterlimit="10" stroke-linecap="round" stroke-linejoin="round"/>
<path d="M425.617 1483.22C425.617 1487.89 422.584 1492.09 418.851 1494.66C415.119 1497.23 410.686 1498.86 406.253 1500.26C404.154 1500.96 402.054 1501.66 399.955 1501.9C394.822 1502.83 389.69 1501.9 384.557 1501.19C383.857 1501.19 383.391 1500.96 382.924 1500.49C382.457 1500.03 382.224 1499.33 381.991 1498.63C380.824 1493.26 379.658 1487.89 378.258 1482.75C377.558 1479.49 376.625 1475.99 376.625 1472.48C376.392 1468.75 376.858 1465.01 378.025 1461.51C378.491 1460.35 378.958 1459.18 379.891 1458.48C381.291 1457.54 383.391 1458.24 384.79 1458.95C391.089 1461.51 396.922 1464.78 402.754 1468.05C405.787 1469.68 408.82 1471.32 412.086 1473.18C416.985 1475.75 421.884 1478.79 424.684 1483.69" stroke="#737B7F" stroke-width="2.9779" stroke-miterlimit="10" stroke-linecap="round" stroke-linejoin="round"/>
<path d="M502.137 1389.38C493.505 1402.46 484.873 1415.76 481.141 1430.93C479.041 1439.1 478.341 1447.97 473.909 1455.21C469.476 1461.98 462.244 1466.41 454.778 1469.92C447.313 1473.42 439.614 1475.98 433.082 1480.89C430.982 1482.29 428.883 1484.15 426.317 1483.45" stroke="#737B7F" stroke-width="2.9779" stroke-miterlimit="10" stroke-linecap="round" stroke-linejoin="round"/>
<path d="M502.837 1388.45C497.005 1392.89 489.306 1393.12 482.307 1394.99C465.044 1399.66 452.679 1414.36 442.414 1428.83C432.149 1443.31 422.117 1459.18 406.487 1467.82" stroke="#737B7F" stroke-width="2.9779" stroke-miterlimit="10" stroke-linecap="round" stroke-linejoin="round"/>
<path d="M509.603 1282.48C511.702 1297.65 508.436 1312.82 503.537 1327.29C498.638 1341.77 491.872 1355.31 486.273 1369.54C483.24 1377.25 480.441 1385.42 480.907 1393.59" stroke="#737B7F" stroke-width="2.9779" stroke-miterlimit="10" stroke-linecap="round" stroke-linejoin="round"/>
<path d="M509.603 1281.78C501.204 1301.38 483.474 1315.16 468.076 1330.1C462.477 1335.46 457.345 1341.07 451.979 1346.67C444.28 1354.84 436.582 1363.24 428.883 1371.41C422.351 1378.41 415.819 1385.18 410.453 1393.12C397.622 1411.79 392.023 1434.44 386.423 1456.38" stroke="#737B7F" stroke-width="2.9779" stroke-miterlimit="10" stroke-linecap="round" stroke-linejoin="round"/>
<path d="M465.51 1334.53C451.046 1341.53 435.882 1346.9 420.251 1350.87C414.185 1352.27 408.12 1353.67 402.987 1357.41C399.955 1359.74 397.388 1363.01 395.055 1366.04C382.224 1384.02 373.592 1405.02 369.86 1426.73C369.393 1430 368.926 1433.5 369.393 1436.77C370.093 1440.5 371.726 1443.77 373.359 1447.04C375.225 1450.54 376.858 1453.81 378.725 1457.31" stroke="#737B7F" stroke-width="2.9779" stroke-miterlimit="10" stroke-linecap="round" stroke-linejoin="round"/>
<path d="M509.136 1283.88C505.403 1299.05 501.437 1314.46 492.339 1327.29C486.273 1335.93 478.108 1343.17 471.809 1351.8C464.81 1361.37 460.611 1372.58 454.312 1382.62C449.179 1390.79 442.881 1398.26 437.748 1406.66C430.749 1417.86 426.083 1430.7 419.085 1441.91C413.719 1450.54 406.953 1458.25 404.154 1468.05" stroke="#737B7F" stroke-width="1.489" stroke-miterlimit="10" stroke-linecap="round" stroke-linejoin="round"/>
<path d="M508.203 1286.44C504.47 1294.38 500.504 1302.55 495.838 1310.02C483.94 1329.39 467.143 1345.03 452.212 1362.07C438.681 1377.71 426.783 1394.52 416.518 1412.26C407.653 1427.9 399.954 1444.47 397.621 1462.21" stroke="#737B7F" stroke-width="1.489" stroke-miterlimit="10" stroke-linecap="round" stroke-linejoin="round"/>
<path d="M495.372 1349.47C483.474 1369.54 461.311 1382.62 452.212 1404.09C449.646 1409.93 448.246 1416 446.847 1422.3" stroke="#737B7F" stroke-width="1.489" stroke-miterlimit="10" stroke-linecap="round" stroke-linejoin="round"/>
<path d="M437.981 1344.8C425.15 1353.67 412.552 1363.47 403.92 1376.31C399.488 1382.85 396.222 1389.85 392.955 1396.85C388.523 1406.42 384.09 1416.23 381.757 1426.5C379.658 1436.77 379.891 1448.21 384.557 1457.54" stroke="#737B7F" stroke-width="1.489" stroke-miterlimit="10" stroke-linecap="round" stroke-linejoin="round"/>
<path d="M501.437 1390.55C483.707 1405.02 462.944 1416.93 449.879 1435.84C440.081 1450.07 434.715 1467.81 420.951 1478.32" stroke="#737B7F" stroke-width="1.489" stroke-miterlimit="10" stroke-linecap="round" stroke-linejoin="round"/>
<path d="M485.573 1403.16C481.841 1405.96 478.574 1409.46 476.008 1413.43C472.509 1419.03 470.642 1425.8 468.076 1431.87C465.743 1437 462.71 1441.91 459.678 1446.81C454.079 1455.91 448.246 1465.25 439.614 1471.32C437.981 1472.48 436.115 1473.65 434.482 1474.82C431.449 1477.15 428.883 1480.19 426.317 1482.99" stroke="#737B7F" stroke-width="1.489" stroke-miterlimit="10" stroke-linecap="round" stroke-linejoin="round"/>
<path d="M182.058 1468.28C182.757 1475.99 179.491 1483.92 173.892 1489.29C168.993 1493.96 162.461 1496.53 157.095 1500.96C156.628 1501.2 156.162 1501.66 155.695 1501.9C154.529 1502.36 153.362 1501.66 152.429 1500.96C140.764 1493.49 129.1 1483.92 124.9 1470.85C124.434 1469.45 123.967 1467.82 124.201 1466.42C124.434 1461.75 128.4 1458.25 132.832 1457.08C137.265 1455.91 141.931 1456.61 146.364 1457.31C154.762 1458.71 163.161 1460.11 171.326 1461.51C173.426 1461.75 175.525 1462.21 177.392 1463.15C179.258 1464.08 180.891 1465.72 181.358 1467.82" stroke="#737B7F" stroke-width="2.9779" stroke-miterlimit="10" stroke-linecap="round" stroke-linejoin="round"/>
<path d="M160.594 1344.57C161.528 1360.91 172.726 1375.15 173.892 1391.25C174.359 1397.56 173.192 1403.86 173.192 1409.93C173.192 1417.63 174.825 1425.33 174.592 1433.04C174.126 1442.14 170.393 1451.24 164.327 1458.01" stroke="#737B7F" stroke-width="2.9779" stroke-miterlimit="10" stroke-linecap="round" stroke-linejoin="round"/>
<path d="M160.361 1344.1C158.728 1349.24 156.395 1355.31 151.263 1357.41C148.93 1358.34 146.364 1358.34 143.797 1358.81C133.766 1359.97 124.901 1366.28 117.435 1373.05C112.769 1377.48 108.103 1382.62 106.237 1388.68C105.071 1392.89 105.071 1397.32 105.071 1401.76C105.071 1410.39 105.304 1419.26 107.17 1427.67C109.037 1436.07 113.003 1444.47 119.768 1450.08C122.801 1452.64 126.534 1454.74 127.933 1458.48" stroke="#737B7F" stroke-width="2.9779" stroke-miterlimit="10" stroke-linecap="round" stroke-linejoin="round"/>
<path d="M177.158 1274.07C173.659 1280.38 170.16 1286.45 166.66 1292.75C164.794 1295.78 163.161 1299.05 161.061 1302.08C158.495 1305.82 155.462 1309.09 152.896 1312.36C147.53 1318.89 142.864 1326.13 139.831 1334.06C136.799 1342 135.632 1350.87 137.265 1359.04" stroke="#737B7F" stroke-width="2.9779" stroke-miterlimit="10" stroke-linecap="round" stroke-linejoin="round"/>
<path d="M177.158 1273.84C177.858 1299.75 184.857 1325.43 197.455 1347.84C204.454 1360.44 213.552 1373.28 212.386 1387.75C211.686 1396.85 206.787 1405.02 204.687 1414.13C203.521 1419.73 203.287 1425.33 202.121 1430.93C199.555 1444.24 191.856 1456.38 181.124 1464.55" stroke="#737B7F" stroke-width="2.9779" stroke-miterlimit="10" stroke-linecap="round" stroke-linejoin="round"/>
<path d="M166.194 1290.65C164.327 1294.38 160.361 1296.72 156.629 1298.58C147.997 1303.02 138.898 1306.52 129.566 1309.32C123.034 1311.19 116.035 1312.82 110.436 1317.02C102.038 1323.56 99.4715 1335.46 101.105 1345.97C102.738 1356.47 107.87 1366.04 113.003 1375.38" stroke="#737B7F" stroke-width="2.9779" stroke-miterlimit="10" stroke-linecap="round" stroke-linejoin="round"/>
<path d="M176.692 1277.34C171.326 1304.42 178.325 1332.43 188.123 1358.34C190.223 1363.71 192.323 1368.84 193.722 1374.45C197.922 1389.15 197.455 1405.02 193.956 1419.96C190.456 1434.9 183.924 1448.91 175.992 1462.21" stroke="#737B7F" stroke-width="1.489" stroke-miterlimit="10" stroke-linecap="round" stroke-linejoin="round"/>
<path d="M176.459 1278.51C167.36 1293.68 161.761 1311.66 163.861 1329.4C164.794 1336.86 166.893 1344.1 169.226 1351.34C175.525 1371.18 182.291 1391.49 182.524 1412.49C182.758 1429.3 178.558 1446.11 170.626 1460.81" stroke="#737B7F" stroke-width="1.489" stroke-miterlimit="10" stroke-linecap="round" stroke-linejoin="round"/>
<path d="M159.195 1348.77C154.062 1370.01 157.795 1391.95 159.428 1413.66C159.895 1418.8 160.128 1423.7 159.895 1428.83C159.428 1438.87 157.095 1448.91 152.896 1458.01" stroke="#737B7F" stroke-width="1.489" stroke-miterlimit="10" stroke-linecap="round" stroke-linejoin="round"/>
<path d="M159.661 1347.6C158.028 1354.14 152.429 1358.57 148.23 1363.94C141.231 1372.81 138.432 1384.48 138.198 1395.92C137.965 1407.36 140.531 1418.56 142.864 1429.77C143.797 1433.97 144.73 1438.17 145.43 1442.37C146.364 1447.04 147.53 1451.94 146.364 1456.61" stroke="#737B7F" stroke-width="1.489" stroke-miterlimit="10" stroke-linecap="round" stroke-linejoin="round"/>
<path d="M150.796 1357.17C138.432 1366.51 125.834 1376.55 120.001 1390.79C119.068 1393.35 118.135 1395.92 117.902 1398.72C117.435 1402.22 117.902 1405.72 118.135 1409.23C119.768 1426.03 121.635 1443.77 132.133 1456.84" stroke="#737B7F" stroke-width="1.489" stroke-miterlimit="10" stroke-linecap="round" stroke-linejoin="round"/>
<path d="M161.995 1296.72C156.629 1301.39 151.03 1306.29 145.664 1310.96C140.998 1315.16 136.099 1319.36 132.133 1324.03C129.8 1326.83 127.7 1329.86 126.301 1333.36C123.734 1339.9 124.667 1347.14 125.367 1354.14C125.834 1358.11 126.301 1361.84 126.534 1365.81" stroke="#737B7F" stroke-width="1.489" stroke-miterlimit="10" stroke-linecap="round" stroke-linejoin="round"/>
<path d="M159.661 1297.65C149.63 1306.29 138.665 1313.99 127 1320.06C122.568 1322.39 117.902 1324.73 115.336 1328.93C113.236 1332.43 112.769 1336.86 113.003 1341.3C113.236 1351.57 114.869 1361.61 117.902 1371.18" stroke="#737B7F" stroke-width="1.489" stroke-miterlimit="10" stroke-linecap="round" stroke-linejoin="round"/>
<path d="M323.901 1437.24C318.768 1444.01 318.302 1453.11 317.835 1461.75C317.135 1476.22 315.969 1490.92 312.469 1504.93C308.97 1518.94 302.904 1532.71 293.106 1543.44C275.842 1562.35 249.246 1569.82 223.817 1572.39C219.851 1572.86 215.185 1573.32 212.853 1576.59" stroke="#737B7F" stroke-width="2.9779" stroke-miterlimit="10" stroke-linecap="round" stroke-linejoin="round"/>
<path d="M211.919 1577.29C214.485 1570.76 212.852 1563.29 210.519 1556.75C208.187 1550.21 205.154 1543.68 204.92 1536.68C204.92 1532.01 206.087 1527.34 207.487 1522.67C213.786 1499.79 221.018 1475.29 239.448 1460.11C242.714 1457.54 246.213 1455.21 249.946 1453.34C254.145 1451.48 258.811 1450.31 263.477 1449.14C276.542 1445.87 289.606 1442.61 302.671 1439.57C307.103 1438.64 311.536 1437.7 315.968 1438.17C318.768 1438.4 321.801 1439.1 323.9 1437.47" stroke="#737B7F" stroke-width="2.9779" stroke-miterlimit="10" stroke-linecap="round" stroke-linejoin="round"/>
<path d="M323.667 1438.4C319.235 1441.67 314.802 1444.94 310.603 1448.21C306.87 1451.01 303.371 1453.58 299.871 1456.84C285.64 1469.92 278.175 1488.59 267.443 1504.46C258.578 1517.3 247.613 1528.51 238.048 1540.88C235.015 1545.08 231.983 1549.28 229.183 1553.48C224.051 1560.95 218.918 1568.42 213.786 1575.66" stroke="#737B7F" stroke-width="2.9779" stroke-miterlimit="10" stroke-linecap="round" stroke-linejoin="round"/>
<path d="M213.319 1504.93C214.952 1507.96 216.818 1511 218.452 1514.03C224.517 1524.77 230.583 1535.74 231.749 1547.88" stroke="#737B7F" stroke-width="1.489" stroke-miterlimit="10" stroke-linecap="round" stroke-linejoin="round"/>
<path d="M273.976 1557.45C259.745 1555.12 246.68 1548.11 232.216 1547.18" stroke="#737B7F" stroke-width="1.489" stroke-miterlimit="10" stroke-linecap="round" stroke-linejoin="round"/>
<path d="M230.583 1470.38C237.815 1481.35 244.58 1492.79 247.38 1505.63C248.78 1511.7 249.246 1517.77 249.713 1524.07" stroke="#737B7F" stroke-width="1.489" stroke-miterlimit="10" stroke-linecap="round" stroke-linejoin="round"/>
<path d="M305.937 1523.84C292.639 1520.57 278.875 1519.17 265.11 1520.1C260.911 1520.34 256.479 1520.8 252.979 1523.14" stroke="#737B7F" stroke-width="1.489" stroke-miterlimit="10" stroke-linecap="round" stroke-linejoin="round"/>
<path d="M257.412 1451.71C262.078 1457.31 265.11 1464.31 266.51 1471.55C268.143 1478.79 268.376 1486.26 268.843 1493.49C269.076 1496.76 269.076 1500.26 268.143 1503.53" stroke="#737B7F" stroke-width="1.489" stroke-miterlimit="10" stroke-linecap="round" stroke-linejoin="round"/>
<path d="M315.035 1489.29C309.436 1487.66 303.837 1486.02 298.005 1486.49C295.905 1486.72 293.805 1487.19 291.706 1487.66C284.474 1489.29 276.542 1491.16 272.576 1497.46" stroke="#737B7F" stroke-width="1.489" stroke-miterlimit="10" stroke-linecap="round" stroke-linejoin="round"/>
<path d="M19.6848 1599.93C34.3824 1607.17 51.8794 1603.67 67.7434 1606.7C77.7751 1608.57 87.1068 1613 95.972 1618.14C105.537 1623.74 115.335 1631.45 118.135 1642.42C120.001 1649.65 118.602 1657.82 122.334 1664.12" stroke="#737B7F" stroke-width="2.9779" stroke-miterlimit="10" stroke-linecap="round" stroke-linejoin="round"/>
<path d="M19.6848 1599.47C23.1842 1601.57 25.0506 1605.3 25.9838 1609.27C26.9169 1613.24 26.9169 1617.21 27.1502 1621.17C28.3167 1632.15 33.2159 1642.42 40.2147 1650.82C47.4468 1659.22 56.7786 1665.52 66.8102 1669.49C71.9427 1671.59 77.3085 1672.99 82.6743 1672.99C95.7387 1672.99 107.637 1665.52 120.468 1665.06" stroke="#737B7F" stroke-width="2.9779" stroke-miterlimit="10" stroke-linecap="round" stroke-linejoin="round"/>
<path d="M121.401 1664.36C109.736 1663.66 101.105 1653.85 90.8396 1648.25C87.1069 1646.38 83.1409 1644.98 79.4082 1643.12C61.4445 1634.25 49.3132 1616.04 31.3496 1606.94C28.7833 1605.54 25.9838 1604.37 24.1174 1602.27" stroke="#737B7F" stroke-width="2.9779" stroke-miterlimit="10" stroke-linecap="round" stroke-linejoin="round"/>
<path d="M105.537 1627.24C107.403 1629.11 107.87 1631.68 108.337 1634.25C109.97 1643.12 109.503 1651.99 109.037 1661.09" stroke="#737B7F" stroke-width="1.489" stroke-miterlimit="10" stroke-linecap="round" stroke-linejoin="round"/>
<path d="M108.337 1658.99C104.371 1660.39 100.405 1662.02 96.6718 1663.89C93.1724 1665.52 89.9063 1667.39 86.4069 1669.49C84.7738 1670.43 82.9075 1671.36 81.2744 1672.29" stroke="#737B7F" stroke-width="1.489" stroke-miterlimit="10" stroke-linecap="round" stroke-linejoin="round"/>
<path d="M93.4059 1651.29C89.2066 1651.29 85.2406 1653.15 81.7412 1655.25C78.2418 1657.36 74.7424 1659.92 70.7764 1661.56C66.5771 1663.19 61.9112 1663.66 57.4786 1662.72" stroke="#737B7F" stroke-width="1.489" stroke-miterlimit="10" stroke-linecap="round" stroke-linejoin="round"/>
<path d="M93.4058 1649.42C92.4726 1642.42 92.4726 1635.41 91.0728 1628.41C89.9064 1621.41 87.1068 1614.41 81.9744 1609.74" stroke="#737B7F" stroke-width="1.489" stroke-miterlimit="10" stroke-linecap="round" stroke-linejoin="round"/>
<path d="M67.0437 1607.64C68.2102 1608.34 69.1433 1609.5 69.8432 1610.67C76.3755 1620.24 77.0753 1632.38 80.5747 1643.35" stroke="#737B7F" stroke-width="1.489" stroke-miterlimit="10" stroke-linecap="round" stroke-linejoin="round"/>
<path d="M79.8749 1643.58C74.7424 1642.65 69.3766 1642.65 64.2441 1644.28C62.1445 1644.98 60.0448 1645.68 57.9452 1646.38C51.4129 1648.49 44.1808 1648.72 37.4153 1646.85" stroke="#737B7F" stroke-width="1.489" stroke-miterlimit="10" stroke-linecap="round" stroke-linejoin="round"/>
<path d="M64.2441 1631.68C63.3109 1622.34 59.5782 1613.24 53.5126 1606.24" stroke="#737B7F" stroke-width="1.489" stroke-miterlimit="10" stroke-linecap="round" stroke-linejoin="round"/>
<path d="M62.611 1631.21C59.5781 1631.68 56.5453 1631.91 53.7458 1632.38C46.0471 1633.31 37.8818 1634.48 30.4164 1632.38" stroke="#737B7F" stroke-width="1.489" stroke-miterlimit="10" stroke-linecap="round" stroke-linejoin="round"/>
<path d="M48.6133 1620.24C42.081 1622.58 35.0822 1623.51 28.0834 1622.81" stroke="#737B7F" stroke-width="1.489" stroke-miterlimit="10" stroke-linecap="round" stroke-linejoin="round"/>
<path d="M48.1468 1619.31C48.3801 1614.64 46.7471 1609.74 43.481 1606.24" stroke="#737B7F" stroke-width="1.489" stroke-miterlimit="10" stroke-linecap="round" stroke-linejoin="round"/>
<path d="M291.006 1582.66C288.673 1588.03 291.239 1594.1 292.872 1599.7C296.605 1613.24 294.505 1627.48 292.173 1641.25C291.239 1646.85 290.306 1652.45 288.906 1658.06C282.841 1683.27 266.977 1705.91 245.514 1720.61" stroke="#737B7F" stroke-width="2.9779" stroke-miterlimit="10" stroke-linecap="round" stroke-linejoin="round"/>
<path d="M291.006 1582.43C272.576 1591.76 251.579 1597.37 235.715 1610.67C225.45 1619.31 217.518 1630.98 213.552 1643.82C211.686 1649.89 210.753 1656.19 211.686 1662.26C212.153 1665.06 213.319 1667.86 214.252 1670.66C216.585 1677.43 219.152 1684.2 222.884 1690.27C224.751 1693.54 227.084 1696.34 229.417 1699.37C234.782 1706.14 239.915 1712.68 245.047 1719.45" stroke="#737B7F" stroke-width="2.9779" stroke-miterlimit="10" stroke-linecap="round" stroke-linejoin="round"/>
<path d="M291.006 1582.66C278.408 1592.93 268.143 1605.54 258.811 1618.84C255.778 1623.04 252.979 1627.48 250.646 1632.15C246.913 1639.62 244.814 1647.79 244.347 1656.19C242.947 1677.2 251.579 1698.44 246.447 1718.98" stroke="#737B7F" stroke-width="2.9779" stroke-miterlimit="10" stroke-linecap="round" stroke-linejoin="round"/>
<path d="M276.542 1687.23C274.442 1688.63 272.109 1689.8 269.776 1690.74C262.311 1694.24 254.846 1697.5 247.38 1701.01" stroke="#737B7F" stroke-width="1.489" stroke-miterlimit="10" stroke-linecap="round" stroke-linejoin="round"/>
<path d="M246.447 1700.31C238.748 1697.04 230.816 1693.77 222.884 1690.97" stroke="#737B7F" stroke-width="1.489" stroke-miterlimit="10" stroke-linecap="round" stroke-linejoin="round"/>
<path d="M245.747 1682.8C244.347 1680.7 242.247 1679.3 240.148 1677.9C232.449 1672.76 223.817 1669.03 214.719 1666.93" stroke="#737B7F" stroke-width="1.489" stroke-miterlimit="10" stroke-linecap="round" stroke-linejoin="round"/>
<path d="M245.747 1681.16C248.313 1678.83 251.346 1677.2 254.379 1675.33C259.278 1672.53 264.177 1669.73 269.31 1667.86C274.442 1665.99 280.274 1664.83 285.64 1665.76" stroke="#737B7F" stroke-width="1.489" stroke-miterlimit="10" stroke-linecap="round" stroke-linejoin="round"/>
<path d="M243.88 1662.02C241.781 1655.25 236.415 1649.89 231.049 1645.45C226.85 1641.95 221.951 1638.68 216.352 1637.98" stroke="#737B7F" stroke-width="1.489" stroke-miterlimit="10" stroke-linecap="round" stroke-linejoin="round"/>
<path d="M288.673 1644.28C282.841 1642.65 276.775 1643.12 270.943 1644.75C265.11 1646.39 259.745 1649.19 254.379 1651.75C250.413 1653.62 246.214 1656.19 244.814 1660.39" stroke="#737B7F" stroke-width="1.489" stroke-miterlimit="10" stroke-linecap="round" stroke-linejoin="round"/>
<path d="M248.313 1634.71C249.713 1627.94 247.147 1620.94 243.181 1615.34C241.781 1613.47 240.148 1611.6 238.048 1610.9" stroke="#737B7F" stroke-width="1.489" stroke-miterlimit="10" stroke-linecap="round" stroke-linejoin="round"/>
<path d="M294.272 1627.01C285.407 1622.58 274.909 1622.11 265.577 1625.61C260.445 1627.71 255.779 1630.75 251.346 1633.78" stroke="#737B7F" stroke-width="1.489" stroke-miterlimit="10" stroke-linecap="round" stroke-linejoin="round"/>
<path d="M293.572 1607.64C290.539 1606 287.04 1605.54 283.774 1605.77C280.508 1605.77 277.008 1606.47 273.742 1607.17C270.709 1607.87 267.677 1608.34 265.11 1610.2" stroke="#737B7F" stroke-width="1.489" stroke-miterlimit="10" stroke-linecap="round" stroke-linejoin="round"/>
<path d="M265.577 1594.33C267.21 1598.53 266.977 1603.44 265.11 1607.4" stroke="#737B7F" stroke-width="1.489" stroke-miterlimit="10" stroke-linecap="round" stroke-linejoin="round"/>
<path d="M489.54 1705.91C489.773 1692.37 494.439 1679.53 497.005 1666.23C499.571 1652.92 499.105 1637.98 490.706 1627.48C488.14 1624.21 484.874 1621.64 481.374 1619.54C475.542 1615.81 469.243 1613.24 462.711 1610.67C452.912 1606.94 442.881 1603.67 432.849 1600.87C427.95 1599.47 423.051 1598.3 417.918 1597.6C413.019 1597.13 408.12 1597.37 403.221 1597.6C395.989 1598.07 388.29 1598.53 382.224 1602.73C380.825 1603.67 379.425 1604.84 377.792 1604.37" stroke="#737B7F" stroke-width="2.9779" stroke-miterlimit="10" stroke-linecap="round" stroke-linejoin="round"/>
<path d="M378.025 1604.37C380.824 1610.44 381.058 1617.44 382.224 1623.98C384.324 1635.65 389.923 1646.85 399.488 1653.85C404.62 1657.59 410.453 1659.69 416.052 1662.02C425.15 1665.76 434.015 1669.49 442.881 1673.46C448.946 1676.26 455.245 1678.83 461.311 1681.63C465.977 1683.73 470.643 1685.6 474.375 1688.87C476.942 1690.97 479.041 1693.77 481.141 1696.34C483.707 1699.37 486.04 1702.64 488.606 1705.67" stroke="#737B7F" stroke-width="2.9779" stroke-miterlimit="10" stroke-linecap="round" stroke-linejoin="round"/>
<path d="M489.306 1706.38C486.74 1698.91 484.407 1691.44 481.841 1683.97C480.441 1679.53 478.808 1674.86 476.475 1670.89C472.042 1663.43 464.577 1658.29 456.878 1654.56C449.18 1650.82 441.014 1648.02 433.082 1644.52C424.684 1640.78 416.985 1635.88 409.753 1630.05C404.854 1626.08 400.421 1621.88 395.755 1617.67C390.623 1613.47 385.49 1609.5 379.891 1606" stroke="#737B7F" stroke-width="2.9779" stroke-miterlimit="10" stroke-linecap="round" stroke-linejoin="round"/>
<path d="M395.055 1618.14C397.388 1622.11 396.222 1627.01 395.522 1631.68C394.589 1638.45 394.822 1645.45 397.855 1651.52" stroke="#737B7F" stroke-width="1.489" stroke-miterlimit="10" stroke-linecap="round" stroke-linejoin="round"/>
<path d="M397.155 1617.91C401.121 1618.14 404.854 1616.51 407.886 1614.17C411.152 1612.07 413.952 1609.27 416.751 1606.7C418.385 1605.3 420.251 1603.9 422.117 1602.97C425.85 1601.33 430.049 1601.1 434.015 1602.5" stroke="#737B7F" stroke-width="1.489" stroke-miterlimit="10" stroke-linecap="round" stroke-linejoin="round"/>
<path d="M460.378 1609.27C457.578 1608.8 454.779 1608.8 451.979 1609.5C447.546 1610.67 443.58 1613.47 440.314 1616.51C436.815 1619.54 433.549 1622.81 429.816 1625.14C423.984 1628.65 416.752 1629.81 409.986 1628.41" stroke="#737B7F" stroke-width="1.489" stroke-miterlimit="10" stroke-linecap="round" stroke-linejoin="round"/>
<path d="M407.886 1629.58C409.753 1632.15 410.919 1635.18 410.919 1638.45C410.919 1640.32 410.686 1642.18 410.686 1644.05C410.453 1650.35 412.786 1656.65 416.752 1661.32" stroke="#737B7F" stroke-width="1.489" stroke-miterlimit="10" stroke-linecap="round" stroke-linejoin="round"/>
<path d="M428.883 1642.88C429.583 1647.79 430.283 1652.69 430.982 1657.59C431.449 1660.16 431.682 1662.96 432.849 1665.29C433.782 1667.86 435.648 1669.96 437.981 1671.13" stroke="#737B7F" stroke-width="1.489" stroke-miterlimit="10" stroke-linecap="round" stroke-linejoin="round"/>
<path d="M494.439 1638.68C493.739 1634.48 490.706 1630.98 486.74 1629.11C482.774 1627.24 478.341 1627.24 474.375 1627.94C470.176 1628.64 466.21 1630.28 462.244 1631.68C456.178 1634.01 450.346 1636.35 444.28 1638.45C439.381 1640.32 434.482 1642.18 429.35 1641.95" stroke="#737B7F" stroke-width="1.489" stroke-miterlimit="10" stroke-linecap="round" stroke-linejoin="round"/>
<path d="M451.979 1652.45C454.312 1656.42 455.478 1660.86 455.945 1665.29C456.412 1670.19 455.712 1675.33 458.745 1679.3" stroke="#737B7F" stroke-width="1.489" stroke-miterlimit="10" stroke-linecap="round" stroke-linejoin="round"/>
<path d="M453.612 1652.45C455.945 1652.45 458.278 1651.75 460.378 1651.05C466.677 1649.19 473.209 1648.02 479.974 1648.25C483.241 1648.25 486.507 1648.49 489.54 1649.65C492.572 1650.59 495.372 1652.69 497.238 1655.25" stroke="#737B7F" stroke-width="1.489" stroke-miterlimit="10" stroke-linecap="round" stroke-linejoin="round"/>
<path d="M472.276 1666.69C473.675 1669.26 473.675 1672.06 473.442 1675.1C472.976 1677.9 472.276 1680.7 471.809 1683.5C471.576 1684.9 471.576 1686.53 472.509 1687.7" stroke="#737B7F" stroke-width="1.489" stroke-miterlimit="10" stroke-linecap="round" stroke-linejoin="round"/>
<path d="M473.675 1668.33C480.674 1669.26 488.14 1668.09 495.138 1669.73" stroke="#737B7F" stroke-width="1.489" stroke-miterlimit="10" stroke-linecap="round" stroke-linejoin="round"/>
<path d="M156.395 1501.43C157.328 1548.58 158.262 1595.73 155.695 1642.88C151.263 1724.82 136.565 1806.28 112.069 1884.71C102.038 1916.92 90.1397 1949.14 85.9404 1982.52C81.9744 2014.03 84.5406 2047.17 72.4093 2076.35" stroke="#737B7F" stroke-width="2.9779" stroke-miterlimit="10" stroke-linecap="round" stroke-linejoin="round"/>
<path d="M214.252 1575.42C199.555 1589.66 191.156 1609.27 179.025 1625.84C175.526 1630.51 171.793 1635.18 166.66 1638.21C165.261 1638.92 163.861 1639.62 162.694 1640.78C159.895 1643.12 158.728 1646.62 156.629 1649.42" stroke="#737B7F" stroke-width="2.9779" stroke-miterlimit="10" stroke-linecap="round" stroke-linejoin="round"/>
<path d="M121.868 1664.36C123.734 1667.86 125.6 1671.13 127.7 1674.4C131.666 1680.7 136.099 1686.77 142.398 1690.5C144.264 1691.67 146.13 1692.6 147.53 1693.77C149.163 1695.17 150.563 1696.8 150.563 1698.91" stroke="#737B7F" stroke-width="2.9779" stroke-miterlimit="10" stroke-linecap="round" stroke-linejoin="round"/>
<path d="M385.724 1500.26C371.493 1525.7 359.128 1552.32 348.396 1579.39C341.164 1597.83 334.632 1616.74 326.233 1634.71C302.204 1685.6 262.777 1727.62 233.382 1775.7C225.917 1787.84 218.918 1800.44 210.286 1811.88C201.888 1823.09 191.623 1832.66 181.591 1842.46C154.996 1867.9 128.4 1893.58 101.804 1919.02" stroke="#737B7F" stroke-width="2.9779" stroke-miterlimit="10" stroke-linecap="round" stroke-linejoin="round"/>
<path d="M245.98 1720.15C243.881 1728.08 244.581 1736.49 247.847 1743.96C249.013 1746.52 250.413 1749.09 249.48 1751.66" stroke="#737B7F" stroke-width="2.9779" stroke-miterlimit="10" stroke-linecap="round" stroke-linejoin="round"/>
<path d="M379.424 1605.3C375.692 1603.44 371.259 1603.2 367.293 1604.14C363.327 1605.07 359.361 1606.7 355.628 1608.57C352.596 1609.97 349.33 1611.6 346.297 1613.24C342.564 1615.11 338.598 1617.21 334.399 1618.37" stroke="#737B7F" stroke-width="2.9779" stroke-miterlimit="10" stroke-linecap="round" stroke-linejoin="round"/>
<path d="M537.131 1499.33C537.598 1502.36 540.398 1504.23 542.731 1506.33C548.096 1511.23 551.129 1518.24 553.929 1525.01C555.095 1527.81 556.262 1530.61 557.195 1533.41C561.394 1546.25 560.694 1560.72 555.328 1573.09" stroke="#737B7F" stroke-width="1.5536" stroke-miterlimit="10" stroke-linecap="round" stroke-linejoin="round"/>
<path d="M537.131 1499.09C531.532 1508.43 523.834 1516.6 520.567 1526.87C518.468 1533.64 518.235 1540.88 519.868 1547.65C520.801 1550.91 521.967 1553.95 524.3 1556.28C525.233 1557.45 526.633 1558.38 527.8 1559.32C530.832 1561.65 533.632 1563.99 537.131 1565.62C538.764 1566.55 540.631 1567.02 542.497 1567.72C546.696 1569.12 550.896 1570.76 555.095 1572.16" stroke="#737B7F" stroke-width="1.5536" stroke-miterlimit="10" stroke-linecap="round" stroke-linejoin="round"/>
<path d="M537.131 1499.33C534.332 1507.27 533.399 1515.67 532.932 1524.31C532.699 1527.11 532.699 1529.67 532.932 1532.48C533.399 1536.68 534.798 1541.11 536.665 1544.85C541.797 1554.42 551.596 1561.42 554.862 1571.92" stroke="#737B7F" stroke-width="1.5536" stroke-miterlimit="10" stroke-linecap="round" stroke-linejoin="round"/>
<path d="M559.761 1549.51C559.294 1550.68 558.594 1551.85 557.895 1553.02C555.562 1556.52 553.229 1560.25 550.896 1563.75" stroke="#737B7F" stroke-width="0.7768" stroke-miterlimit="10" stroke-linecap="round" stroke-linejoin="round"/>
<path d="M550.196 1563.52C545.763 1564.22 541.564 1564.92 537.131 1565.85" stroke="#737B7F" stroke-width="0.7768" stroke-miterlimit="10" stroke-linecap="round" stroke-linejoin="round"/>
<path d="M545.063 1556.05C543.897 1555.58 542.497 1555.35 541.097 1555.35C536.198 1555.12 531.299 1556.05 526.866 1557.45" stroke="#737B7F" stroke-width="0.7768" stroke-miterlimit="10" stroke-linecap="round" stroke-linejoin="round"/>
<path d="M544.364 1555.35C544.83 1553.72 545.763 1552.08 546.463 1550.45C547.863 1547.88 549.263 1545.31 550.896 1542.98C552.762 1540.64 554.862 1538.54 557.661 1537.61" stroke="#737B7F" stroke-width="0.7768" stroke-miterlimit="10" stroke-linecap="round" stroke-linejoin="round"/>
<path d="M538.298 1547.41C535.498 1545.08 531.766 1544.14 528.033 1543.68C525.233 1543.44 522.201 1543.21 519.401 1544.38" stroke="#737B7F" stroke-width="0.7768" stroke-miterlimit="10" stroke-linecap="round" stroke-linejoin="round"/>
<path d="M553.229 1527.11C550.196 1528.04 547.63 1529.91 545.53 1532.24C543.43 1534.57 541.797 1537.38 540.164 1539.94C538.998 1541.81 537.831 1544.15 538.298 1546.25" stroke="#737B7F" stroke-width="0.7768" stroke-miterlimit="10" stroke-linecap="round" stroke-linejoin="round"/>
<path d="M532.932 1534.11C531.766 1530.84 528.733 1528.27 525.233 1527.11C524.067 1526.64 522.9 1526.41 521.734 1526.64" stroke="#737B7F" stroke-width="0.7768" stroke-miterlimit="10" stroke-linecap="round" stroke-linejoin="round"/>
<path d="M550.896 1518C545.763 1518.47 540.864 1521.27 537.831 1525.47C536.198 1527.81 535.032 1530.37 533.865 1533.17" stroke="#737B7F" stroke-width="0.7768" stroke-miterlimit="10" stroke-linecap="round" stroke-linejoin="round"/>
<path d="M545.297 1509.6C543.43 1509.83 541.797 1510.53 540.397 1511.47C538.998 1512.4 537.598 1513.57 536.431 1514.97C535.265 1516.13 534.098 1517.3 533.399 1518.7" stroke="#737B7F" stroke-width="0.7768" stroke-miterlimit="10" stroke-linecap="round" stroke-linejoin="round"/>
<path d="M529.199 1511.47C531.066 1512.87 532.232 1515.2 532.699 1517.54" stroke="#737B7F" stroke-width="0.7768" stroke-miterlimit="10" stroke-linecap="round" stroke-linejoin="round"/>
<path d="M157.095 1142.19C154.296 1143.36 153.129 1146.62 151.963 1149.43C148.697 1155.96 142.864 1160.86 137.265 1165.53C134.932 1167.4 132.599 1169.27 130.266 1170.9C119.068 1178.6 105.07 1181.87 91.7727 1180.24" stroke="#737B7F" stroke-width="1.5536" stroke-miterlimit="10" stroke-linecap="round" stroke-linejoin="round"/>
<path d="M157.095 1142.19C146.597 1139.39 136.565 1134.25 125.834 1134.02C118.835 1133.79 111.603 1135.65 105.77 1139.39C102.971 1141.02 100.405 1143.12 98.7716 1145.92C98.0717 1147.32 97.3718 1148.73 96.9053 1150.13C95.5055 1153.63 94.1057 1157.13 93.4058 1160.86C93.1726 1162.73 92.9393 1164.83 92.9393 1166.7C92.706 1171.13 92.4727 1175.57 92.0061 1180" stroke="#737B7F" stroke-width="1.5536" stroke-miterlimit="10" stroke-linecap="round" stroke-linejoin="round"/>
<path d="M157.095 1142.19C148.697 1141.72 140.298 1143.12 132.133 1145.22C129.566 1145.92 126.767 1146.62 124.434 1147.56C120.468 1149.19 116.735 1151.76 113.702 1154.79C105.77 1162.5 101.804 1173.93 92.7059 1180" stroke="#737B7F" stroke-width="1.5536" stroke-miterlimit="10" stroke-linecap="round" stroke-linejoin="round"/>
<path d="M115.102 1177.9C113.702 1177.67 112.536 1177.44 111.369 1176.97C107.17 1175.8 103.204 1174.4 99.0049 1173.23" stroke="#737B7F" stroke-width="0.7768" stroke-miterlimit="10" stroke-linecap="round" stroke-linejoin="round"/>
<path d="M99.0048 1172.53C97.1385 1168.57 95.0388 1164.6 93.1725 1160.63" stroke="#737B7F" stroke-width="0.7768" stroke-miterlimit="10" stroke-linecap="round" stroke-linejoin="round"/>
<path d="M104.837 1165.53C105.071 1164.13 104.837 1162.96 104.371 1161.56C103.204 1156.9 101.105 1152.46 98.3051 1148.49" stroke="#737B7F" stroke-width="0.7768" stroke-miterlimit="10" stroke-linecap="round" stroke-linejoin="round"/>
<path d="M105.304 1164.83C107.17 1164.83 108.803 1165.3 110.67 1165.53C113.469 1166.23 116.269 1166.7 119.068 1167.87C121.868 1169.03 124.434 1170.43 126.067 1172.77" stroke="#737B7F" stroke-width="0.7768" stroke-miterlimit="10" stroke-linecap="round" stroke-linejoin="round"/>
<path d="M111.136 1156.66C112.769 1153.39 112.536 1149.43 111.836 1145.69C111.369 1142.89 110.669 1139.86 108.803 1137.75" stroke="#737B7F" stroke-width="0.7768" stroke-miterlimit="10" stroke-linecap="round" stroke-linejoin="round"/>
<path d="M134.932 1165.3C133.299 1162.73 130.733 1160.63 127.933 1159.23C125.134 1157.83 122.101 1157.13 119.068 1156.19C116.968 1155.49 114.402 1155.03 112.303 1156.19" stroke="#737B7F" stroke-width="0.7768" stroke-miterlimit="10" stroke-linecap="round" stroke-linejoin="round"/>
<path d="M122.334 1147.79C125.134 1145.69 126.767 1141.96 127 1138.45C127 1137.29 127 1135.89 126.534 1134.95" stroke="#737B7F" stroke-width="0.7768" stroke-miterlimit="10" stroke-linecap="round" stroke-linejoin="round"/>
<path d="M143.098 1160.63C141.231 1155.96 137.265 1151.99 132.366 1150.13C129.566 1149.19 126.767 1148.73 123.967 1148.49" stroke="#737B7F" stroke-width="0.7768" stroke-miterlimit="10" stroke-linecap="round" stroke-linejoin="round"/>
<path d="M149.396 1152.93C148.697 1151.29 147.53 1149.89 146.364 1148.72C144.964 1147.56 143.564 1146.62 141.931 1145.92C140.531 1145.22 139.131 1144.29 137.498 1144.06" stroke="#737B7F" stroke-width="0.7768" stroke-miterlimit="10" stroke-linecap="round" stroke-linejoin="round"/>
<path d="M143.098 1137.75C142.164 1139.86 140.531 1141.72 138.432 1142.66" stroke="#737B7F" stroke-width="0.7768" stroke-miterlimit="10" stroke-linecap="round" stroke-linejoin="round"/>
<path d="M1040.27 195.863C1043.52 199.62 1044.27 204.878 1043.27 209.887C1042.27 214.644 1039.76 219.152 1037.51 223.409C1036.26 225.412 1035.26 227.416 1033.76 229.168C1030.5 233.676 1025.75 236.681 1020.99 239.686C1020.49 239.936 1019.74 240.437 1019.24 240.437C1018.49 240.437 1017.74 239.936 1017.24 239.686C1012.48 236.431 1007.48 233.175 1002.72 229.669C999.721 227.666 996.467 225.412 993.964 222.908C991.211 220.154 988.709 216.898 986.957 213.142C986.456 211.89 985.956 210.638 986.206 209.386C986.707 207.633 988.709 206.631 990.461 206.13C997.218 203.626 1004.23 201.873 1011.23 200.12C1014.99 199.119 1018.49 198.367 1022.25 197.366C1028 195.863 1034.01 194.611 1039.76 196.364" stroke="#737B7F" stroke-width="2.9779" stroke-miterlimit="10" stroke-linecap="round" stroke-linejoin="round"/>
<path d="M1032.51 66.1497C1035.26 82.677 1038.26 99.7053 1046.27 114.229C1050.53 122.243 1056.53 129.755 1058.29 138.52C1059.79 147.034 1057.28 155.798 1053.78 163.811C1050.53 171.825 1046.27 179.588 1044.77 188.352C1044.27 190.856 1043.77 194.112 1041.27 195.113" stroke="#737B7F" stroke-width="2.9779" stroke-miterlimit="10" stroke-linecap="round" stroke-linejoin="round"/>
<path d="M1032.26 64.8975C1031.01 72.6603 1025 78.4199 1020.74 84.9306C1010.48 101.208 1011.48 121.742 1013.99 140.773C1016.49 159.805 1020.24 179.337 1014.24 197.617" stroke="#737B7F" stroke-width="2.9779" stroke-miterlimit="10" stroke-linecap="round" stroke-linejoin="round"/>
<path d="M960.177 -23.4995C972.691 -13.2325 981.451 1.29152 987.958 16.066C994.465 31.0909 999.22 46.6166 1004.98 61.8919C1008.23 70.1556 1011.98 78.4193 1018.24 84.6797" stroke="#737B7F" stroke-width="2.9779" stroke-miterlimit="10" stroke-linecap="round" stroke-linejoin="round"/>
<path d="M959.677 -24C967.435 -2.46433 963.431 21.3251 962.179 44.3632C961.679 52.6269 961.679 60.8906 961.679 69.1543C961.679 81.4246 961.679 93.4445 961.428 105.715C961.428 115.982 961.428 125.998 962.68 136.265C966.184 160.305 978.197 182.091 989.96 203.377" stroke="#737B7F" stroke-width="2.9779" stroke-miterlimit="10" stroke-linecap="round" stroke-linejoin="round"/>
<path d="M963.43 49.6211C957.173 65.6476 949.165 80.9229 939.654 95.447C936.15 100.956 932.146 106.716 930.894 113.226C930.144 117.483 930.394 121.741 931.145 125.747C934.148 149.286 942.657 172.074 955.672 191.857C957.674 194.862 959.676 197.867 962.68 200.12C965.683 202.624 969.687 203.877 973.441 205.379C977.195 206.882 981.2 208.134 984.954 209.636" stroke="#737B7F" stroke-width="2.9779" stroke-miterlimit="10" stroke-linecap="round" stroke-linejoin="round"/>
<path d="M961.178 -21.9963C969.187 -7.22187 977.196 7.80302 979.699 24.3304C981.2 35.5991 979.949 47.1181 981.451 58.6372C982.952 71.158 987.708 83.1779 990.21 95.6986C992.213 105.966 992.713 116.483 994.715 126.75C997.468 140.773 1002.97 154.045 1005.73 168.069C1007.73 178.586 1008.23 189.855 1012.99 199.621" stroke="#737B7F" stroke-width="1.489" stroke-miterlimit="10" stroke-linecap="round" stroke-linejoin="round"/>
<path d="M961.929 -19.2422C964.682 -10.2273 967.685 -0.961911 969.437 8.30344C974.193 32.0928 972.19 56.8839 972.941 81.1741C973.692 103.211 976.445 125.247 981.451 146.783C985.705 165.564 991.962 184.095 1002.97 199.871" stroke="#737B7F" stroke-width="1.489" stroke-miterlimit="10" stroke-linecap="round" stroke-linejoin="round"/>
<path d="M997.969 39.6057C1002.97 64.1464 995.466 90.4399 1003.73 113.979C1005.98 120.239 1009.23 126.249 1012.74 132.009" stroke="#737B7F" stroke-width="1.489" stroke-miterlimit="10" stroke-linecap="round" stroke-linejoin="round"/>
<path d="M949.416 77.9189C945.661 94.1959 942.908 111.224 945.411 127.751C946.663 136.015 949.165 144.028 951.918 151.791C955.422 162.559 958.926 173.577 964.682 183.344C970.439 193.11 978.948 201.874 989.46 205.881" stroke="#737B7F" stroke-width="1.489" stroke-miterlimit="10" stroke-linecap="round" stroke-linejoin="round"/>
<path d="M1032.51 67.4016C1029.25 91.6918 1021.49 116.233 1025 140.523C1027.5 158.803 1036.51 176.833 1033.26 195.113" stroke="#737B7F" stroke-width="1.489" stroke-miterlimit="10" stroke-linecap="round" stroke-linejoin="round"/>
<path d="M1029.25 89.1885C1028.5 94.1968 1028.25 99.2051 1029.25 104.213C1030.5 111.225 1034.01 117.736 1036.51 124.497C1038.51 130.256 1039.76 136.266 1040.77 142.276C1043.02 153.545 1045.27 165.064 1042.77 176.333C1042.27 178.587 1041.77 180.59 1041.27 182.844C1040.52 186.85 1040.77 191.107 1040.77 195.364" stroke="#737B7F" stroke-width="1.489" stroke-miterlimit="10" stroke-linecap="round" stroke-linejoin="round"/>
<path d="M837.792 361.639C843.799 367.399 847.303 375.913 846.802 384.177C846.302 391.439 843.048 398.2 842.047 405.462C842.047 405.963 841.797 406.714 841.547 406.964C841.046 407.966 839.544 408.467 838.293 408.717C823.527 411.472 807.509 412.223 794.495 404.961C792.993 404.21 791.742 403.208 790.741 401.956C787.487 398.2 787.987 392.44 790.741 388.183C793.243 383.926 797.498 381.172 801.753 378.417C809.261 373.409 817.019 368.401 824.528 363.392C826.28 362.14 828.282 360.888 830.284 360.387C832.537 359.887 834.789 359.887 836.791 361.139" stroke="#737B7F" stroke-width="2.9779" stroke-miterlimit="10" stroke-linecap="round" stroke-linejoin="round"/>
<path d="M730.674 279.753C743.188 292.023 762.459 295.028 775.223 307.048C779.979 311.556 783.733 317.315 788.238 322.323C793.744 328.333 800.751 333.091 806.007 339.602C812.264 347.114 816.018 356.881 816.018 366.897" stroke="#737B7F" stroke-width="2.9779" stroke-miterlimit="10" stroke-linecap="round" stroke-linejoin="round"/>
<path d="M730.424 279.503C732.927 284.762 735.429 291.022 732.927 296.531C731.926 299.035 729.673 301.039 727.921 303.042C720.913 311.306 718.411 322.825 717.41 333.593C716.909 340.604 717.159 347.866 720.163 354.126C722.165 358.384 725.418 361.889 728.672 365.145C735.179 371.906 741.436 378.918 749.195 384.176C756.953 389.435 765.963 392.941 775.474 392.69C779.728 392.44 784.233 391.438 787.987 393.191" stroke="#737B7F" stroke-width="2.9779" stroke-miterlimit="10" stroke-linecap="round" stroke-linejoin="round"/>
<path d="M692.382 212.392C694.134 219.904 695.886 227.416 697.638 234.678C698.639 238.435 699.39 242.191 699.89 245.947C700.641 250.705 700.641 255.463 700.891 260.221C701.392 269.236 702.894 278.501 706.397 287.015C709.901 295.529 715.157 303.292 722.665 308.551" stroke="#737B7F" stroke-width="2.9779" stroke-miterlimit="10" stroke-linecap="round" stroke-linejoin="round"/>
<path d="M692.132 212.14C711.403 231.923 735.68 247.198 761.959 255.713C776.725 260.47 793.243 263.976 802.754 276.247C808.76 284.009 811.013 294.026 815.768 302.54C818.771 307.799 822.776 312.557 826.029 317.565C833.788 329.835 836.541 345.111 834.038 359.384" stroke="#737B7F" stroke-width="2.9779" stroke-miterlimit="10" stroke-linecap="round" stroke-linejoin="round"/>
<path d="M696.136 233.426C697.388 237.683 696.136 242.441 694.384 246.698C690.881 256.464 686.125 265.98 680.87 274.744C677.116 281.005 672.611 287.516 671.609 294.778C669.858 306.046 676.365 317.315 685.124 324.327C694.134 331.338 705.146 335.094 715.908 338.851" stroke="#737B7F" stroke-width="2.9779" stroke-miterlimit="10" stroke-linecap="round" stroke-linejoin="round"/>
<path d="M694.384 215.397C709.901 240.689 735.68 257.717 762.209 270.989C767.715 273.744 773.221 276.248 778.477 279.503C792.492 288.017 803.755 300.788 811.764 315.312C819.773 329.586 825.028 345.613 828.282 361.639" stroke="#737B7F" stroke-width="1.489" stroke-miterlimit="10" stroke-linecap="round" stroke-linejoin="round"/>
<path d="M695.135 216.398C698.889 235.179 707.649 253.459 722.165 265.729C728.422 270.988 735.429 274.995 742.437 279.001C761.959 290.02 781.981 301.038 797.498 317.315C809.761 330.336 818.771 346.613 823.276 364.142" stroke="#737B7F" stroke-width="1.489" stroke-miterlimit="10" stroke-linecap="round" stroke-linejoin="round"/>
<path d="M732.676 284.261C743.939 304.795 762.96 319.319 780.229 335.346C784.233 339.102 787.987 342.858 791.491 346.865C798.499 355.128 803.755 364.644 807.259 374.911" stroke="#737B7F" stroke-width="1.489" stroke-miterlimit="10" stroke-linecap="round" stroke-linejoin="round"/>
<path d="M732.176 283.008C735.68 289.268 734.428 297.031 735.179 304.043C736.18 316.313 742.437 327.582 750.446 336.597C758.705 345.612 768.716 352.874 778.727 359.885C782.481 362.64 786.235 365.144 789.99 367.899C794.244 370.904 798.499 373.909 801.252 378.416" stroke="#737B7F" stroke-width="1.489" stroke-miterlimit="10" stroke-linecap="round" stroke-linejoin="round"/>
<path d="M732.176 297.032C729.423 313.309 726.67 330.588 732.426 346.114C733.427 348.868 734.679 351.623 736.431 353.877C738.683 356.882 741.436 359.386 744.189 361.89C757.704 373.91 772.22 386.431 789.99 389.185" stroke="#737B7F" stroke-width="1.489" stroke-miterlimit="10" stroke-linecap="round" stroke-linejoin="round"/>
<path d="M696.887 241.189C696.136 248.952 695.135 256.715 694.384 264.227C693.633 270.989 692.883 277.75 693.383 284.511C693.633 288.518 694.134 292.274 695.636 296.03C698.389 303.042 704.395 308.05 709.901 313.058C713.155 315.813 716.158 318.567 719.412 321.322" stroke="#737B7F" stroke-width="1.489" stroke-miterlimit="10" stroke-linecap="round" stroke-linejoin="round"/>
<path d="M695.886 243.693C694.384 257.717 691.131 271.74 686.626 285.262C684.874 290.27 682.871 295.529 683.873 300.788C684.874 305.295 687.877 308.801 690.88 312.307C698.389 320.32 707.148 327.081 716.659 332.34" stroke="#737B7F" stroke-width="1.489" stroke-miterlimit="10" stroke-linecap="round" stroke-linejoin="round"/>
<path d="M926.64 233.676C927.391 242.691 933.648 250.454 939.655 257.465C949.666 269.485 959.426 281.755 966.935 295.278C974.443 308.8 979.699 324.076 979.699 339.852C979.699 367.397 964.182 392.439 946.162 413.223C943.159 416.479 940.155 420.235 940.656 424.742" stroke="#737B7F" stroke-width="2.9779" stroke-miterlimit="10" stroke-linecap="round" stroke-linejoin="round"/>
<path d="M940.405 425.745C937.652 418.733 931.145 413.975 924.387 410.47C917.63 406.964 910.622 403.959 905.367 398.7C901.863 394.944 899.36 390.436 897.107 385.929C885.344 363.141 873.331 338.601 876.585 313.309C877.085 308.801 878.337 304.544 880.089 300.287C882.091 295.529 884.844 291.272 887.597 287.015C895.606 274.995 903.364 262.725 911.623 250.955C914.376 246.949 917.129 242.942 920.883 240.188C923.136 238.435 926.139 236.682 926.64 233.927" stroke="#737B7F" stroke-width="2.9779" stroke-miterlimit="10" stroke-linecap="round" stroke-linejoin="round"/>
<path d="M927.391 234.928C926.39 240.688 925.389 246.447 924.138 252.207C923.137 256.964 922.386 261.722 921.885 266.731C920.383 287.265 927.892 307.548 931.145 328.082C933.648 344.61 932.897 361.387 934.649 378.165C935.15 383.674 935.901 389.183 936.651 394.442C938.153 403.958 939.404 413.474 940.906 423.24" stroke="#737B7F" stroke-width="2.9779" stroke-miterlimit="10" stroke-linecap="round" stroke-linejoin="round"/>
<path d="M889.099 367.649C892.603 368.901 896.107 369.903 899.861 371.155C912.375 375.161 925.139 379.418 934.9 388.183" stroke="#737B7F" stroke-width="1.489" stroke-miterlimit="10" stroke-linecap="round" stroke-linejoin="round"/>
<path d="M975.194 364.894C962.43 373.408 946.662 377.414 934.899 387.18" stroke="#737B7F" stroke-width="1.489" stroke-miterlimit="10" stroke-linecap="round" stroke-linejoin="round"/>
<path d="M877.586 327.833C891.352 331.088 904.867 335.345 916.63 343.359C922.136 347.115 926.891 351.622 931.896 356.13" stroke="#737B7F" stroke-width="1.489" stroke-miterlimit="10" stroke-linecap="round" stroke-linejoin="round"/>
<path d="M975.694 315.062C962.68 322.073 950.917 331.339 940.906 341.856C937.903 345.111 934.649 348.617 933.648 353.125" stroke="#737B7F" stroke-width="1.489" stroke-miterlimit="10" stroke-linecap="round" stroke-linejoin="round"/>
<path d="M885.094 293.777C892.853 294.778 900.361 298.284 906.868 302.792C913.376 307.299 919.132 312.808 924.638 318.568C927.141 321.072 929.894 323.576 931.395 326.831" stroke="#737B7F" stroke-width="1.489" stroke-miterlimit="10" stroke-linecap="round" stroke-linejoin="round"/>
<path d="M957.925 281.255C952.418 284.009 946.662 287.014 942.658 291.522C941.156 293.275 939.905 295.028 938.403 297.031C933.898 303.542 929.143 310.804 930.394 318.567" stroke="#737B7F" stroke-width="1.489" stroke-miterlimit="10" stroke-linecap="round" stroke-linejoin="round"/>
<path d="M805.757 583.757C822.525 578.749 833.788 563.223 848.554 553.958C857.814 548.198 868.326 544.693 879.088 542.439C890.851 539.935 903.865 538.933 914.126 545.444C920.884 549.701 925.639 557.213 933.398 559.467" stroke="#737B7F" stroke-width="2.9779" stroke-miterlimit="10" stroke-linecap="round" stroke-linejoin="round"/>
<path d="M805.507 583.256C809.761 582.255 814.016 584.008 817.52 586.261C821.024 588.766 824.027 592.021 827.281 594.775C836.04 602.538 847.553 607.046 859.066 608.548C870.829 609.8 882.592 608.047 893.604 603.79C899.11 601.537 904.366 598.782 908.62 594.775C918.882 585.51 922.886 570.736 932.647 560.969" stroke="#737B7F" stroke-width="2.9779" stroke-miterlimit="10" stroke-linecap="round" stroke-linejoin="round"/>
<path d="M932.897 560.468C923.137 568.231 909.121 566.979 897.108 570.234C892.853 571.487 888.598 573.239 884.344 574.492C863.821 580.752 841.046 575.243 820.273 581.002C817.27 581.754 814.267 583.006 811.013 582.505" stroke="#737B7F" stroke-width="2.9779" stroke-miterlimit="10" stroke-linecap="round" stroke-linejoin="round"/>
<path d="M893.354 542.438C896.107 542.689 898.609 544.191 900.862 545.944C908.62 551.704 914.877 558.966 920.884 566.478" stroke="#737B7F" stroke-width="1.489" stroke-miterlimit="10" stroke-linecap="round" stroke-linejoin="round"/>
<path d="M918.631 565.475C916.379 569.482 914.627 573.739 912.875 577.996C911.373 581.752 910.122 585.759 908.87 589.766C908.12 591.769 907.619 593.772 906.868 595.776" stroke="#737B7F" stroke-width="1.489" stroke-miterlimit="10" stroke-linecap="round" stroke-linejoin="round"/>
<path d="M901.112 570.484C897.858 573.489 896.106 577.996 894.855 582.253C893.604 586.51 892.853 591.018 890.851 595.024C888.848 599.281 885.345 603.038 881.34 605.542" stroke="#737B7F" stroke-width="1.489" stroke-miterlimit="10" stroke-linecap="round" stroke-linejoin="round"/>
<path d="M899.861 568.983C894.104 564.225 888.849 558.716 882.842 553.958C876.835 549.45 869.577 545.944 862.069 545.944" stroke="#737B7F" stroke-width="1.489" stroke-miterlimit="10" stroke-linecap="round" stroke-linejoin="round"/>
<path d="M848.554 555.21C850.056 554.96 851.558 555.21 853.059 555.461C865.072 558.215 874.583 567.23 885.345 573.24" stroke="#737B7F" stroke-width="1.489" stroke-miterlimit="10" stroke-linecap="round" stroke-linejoin="round"/>
<path d="M884.844 573.99C880.089 576.995 875.834 581.002 873.081 585.76C871.83 587.763 870.829 590.017 869.828 592.02C866.074 598.531 860.568 603.79 854.06 607.295" stroke="#737B7F" stroke-width="1.489" stroke-miterlimit="10" stroke-linecap="round" stroke-linejoin="round"/>
<path d="M863.821 576.244C856.313 569.483 846.802 565.226 836.791 563.974" stroke="#737B7F" stroke-width="1.489" stroke-miterlimit="10" stroke-linecap="round" stroke-linejoin="round"/>
<path d="M862.32 576.996C860.317 579.5 858.315 582.004 856.063 584.508C850.807 591.019 845.051 597.78 837.542 601.536" stroke="#737B7F" stroke-width="1.489" stroke-miterlimit="10" stroke-linecap="round" stroke-linejoin="round"/>
<path d="M843.298 578.498C840.045 585.259 835.039 591.019 829.033 595.526" stroke="#737B7F" stroke-width="1.489" stroke-miterlimit="10" stroke-linecap="round" stroke-linejoin="round"/>
<path d="M842.297 577.997C839.044 573.991 834.289 571.486 829.033 570.986" stroke="#737B7F" stroke-width="1.489" stroke-miterlimit="10" stroke-linecap="round" stroke-linejoin="round"/>
<path d="M1006.73 372.406C1008.73 378.416 1015.24 381.17 1020.49 384.426C1033.26 392.189 1042.02 405.21 1050.28 417.731C1053.78 422.739 1057.03 427.998 1060.04 433.257C1073.55 457.547 1077.56 486.846 1071.55 513.89" stroke="#737B7F" stroke-width="2.9779" stroke-miterlimit="10" stroke-linecap="round" stroke-linejoin="round"/>
<path d="M1006.73 372.157C998.97 392.941 986.456 412.474 983.703 434.76C981.951 449.034 984.204 464.059 990.46 477.081C993.464 483.09 997.218 488.85 1002.47 492.857C1004.98 494.86 1007.73 496.112 1010.48 497.615C1017.24 501.12 1024.25 504.626 1031.51 506.629C1035.26 507.631 1039.26 508.382 1043.27 508.883C1052.28 510.386 1061.29 511.888 1070.3 513.14" stroke="#737B7F" stroke-width="2.9779" stroke-miterlimit="10" stroke-linecap="round" stroke-linejoin="round"/>
<path d="M1006.73 372.406C1004.23 389.685 1005.48 406.963 1007.73 424.242C1008.48 429.751 1009.48 435.26 1010.98 440.769C1013.49 449.283 1017.74 457.297 1023.5 464.308C1037.76 481.837 1060.04 492.355 1070.8 512.137" stroke="#737B7F" stroke-width="2.9779" stroke-miterlimit="10" stroke-linecap="round" stroke-linejoin="round"/>
<path d="M1071.55 465.31C1071.05 468.064 1070.05 470.568 1068.8 473.072C1065.29 481.086 1062.04 489.349 1058.54 497.363" stroke="#737B7F" stroke-width="1.489" stroke-miterlimit="10" stroke-linecap="round" stroke-linejoin="round"/>
<path d="M1057.53 497.364C1049.03 500.369 1040.52 503.624 1032.26 507.13" stroke="#737B7F" stroke-width="1.489" stroke-miterlimit="10" stroke-linecap="round" stroke-linejoin="round"/>
<path d="M1044.02 484.092C1041.27 483.591 1038.51 483.841 1036.01 484.342C1026.25 485.845 1016.74 489.351 1007.98 494.108" stroke="#737B7F" stroke-width="1.489" stroke-miterlimit="10" stroke-linecap="round" stroke-linejoin="round"/>
<path d="M1042.77 482.839C1043.02 479.083 1044.27 475.577 1045.27 472.071C1047.02 466.312 1048.77 460.552 1051.53 455.293C1054.28 450.035 1058.04 445.026 1063.04 441.771" stroke="#737B7F" stroke-width="1.489" stroke-miterlimit="10" stroke-linecap="round" stroke-linejoin="round"/>
<path d="M1027.25 469.066C1020.74 465.31 1012.74 465.059 1004.98 465.56C998.97 466.061 992.963 466.812 987.958 470.318" stroke="#737B7F" stroke-width="1.489" stroke-miterlimit="10" stroke-linecap="round" stroke-linejoin="round"/>
<path d="M1049.78 422.489C1044.02 425.244 1039.51 430.252 1036.26 435.761C1033.01 441.27 1030.75 447.28 1028.5 453.29C1026.75 457.798 1025.25 462.806 1027.25 466.813" stroke="#737B7F" stroke-width="1.489" stroke-miterlimit="10" stroke-linecap="round" stroke-linejoin="round"/>
<path d="M1011.23 444.275C1007.48 438.015 1000.22 434.259 993.214 432.756C990.711 432.256 988.208 432.005 985.955 433.007" stroke="#737B7F" stroke-width="1.489" stroke-miterlimit="10" stroke-linecap="round" stroke-linejoin="round"/>
<path d="M1041.77 404.711C1031.76 407.716 1023 414.978 1018.24 424.493C1015.74 429.752 1014.24 435.762 1012.99 441.522" stroke="#737B7F" stroke-width="1.489" stroke-miterlimit="10" stroke-linecap="round" stroke-linejoin="round"/>
<path d="M1027 389.935C1023.5 390.937 1020.49 392.94 1017.74 395.444C1015.24 397.949 1012.99 400.953 1010.98 403.958C1008.98 406.713 1006.98 409.468 1006.48 412.723" stroke="#737B7F" stroke-width="1.489" stroke-miterlimit="10" stroke-linecap="round" stroke-linejoin="round"/>
<path d="M995.216 399.951C999.47 402.205 1002.97 405.961 1004.48 410.719" stroke="#737B7F" stroke-width="1.489" stroke-miterlimit="10" stroke-linecap="round" stroke-linejoin="round"/>
<path d="M841.797 406.463C877.086 442.773 911.874 479.334 944.41 518.399C1000.72 586.261 1048.52 661.135 1086.32 740.516C1101.83 773.321 1116.1 807.127 1137.12 836.676C1156.89 864.472 1183.17 888.512 1194.69 920.565" stroke="#737B7F" stroke-width="2.9779" stroke-miterlimit="10" stroke-linecap="round" stroke-linejoin="round"/>
<path d="M941.156 422.489C939.905 444.526 947.413 465.811 950.166 487.847C950.917 494.108 951.167 500.619 949.415 506.629C948.915 508.131 948.414 509.884 948.164 511.386C947.663 515.143 949.415 518.899 949.665 522.655" stroke="#737B7F" stroke-width="2.9779" stroke-miterlimit="10" stroke-linecap="round" stroke-linejoin="round"/>
<path d="M933.147 559.968C937.152 561.22 941.156 562.472 945.161 563.724C952.669 565.727 960.678 567.23 968.436 565.727C970.689 565.226 972.691 564.726 974.943 564.475C977.196 564.225 979.448 564.726 981.2 566.228" stroke="#737B7F" stroke-width="2.9779" stroke-miterlimit="10" stroke-linecap="round" stroke-linejoin="round"/>
<path d="M1021.49 238.434C1029 268.735 1038.51 298.784 1049.78 327.832C1057.53 347.615 1066.04 367.147 1072.55 387.681C1090.82 445.277 1090.32 507.129 1102.08 566.227C1105.09 581.252 1108.84 596.277 1110.34 611.552C1111.84 626.577 1110.84 641.602 1109.84 656.377C1107.59 695.942 1105.09 735.257 1102.83 774.823" stroke="#737B7F" stroke-width="2.9779" stroke-miterlimit="10" stroke-linecap="round" stroke-linejoin="round"/>
<path d="M1071.55 513.39C1075.55 521.153 1082.31 527.413 1090.32 530.919C1093.07 532.171 1096.08 533.172 1097.33 535.677" stroke="#737B7F" stroke-width="2.9779" stroke-miterlimit="10" stroke-linecap="round" stroke-linejoin="round"/>
<path d="M1092.82 325.579C1088.57 326.831 1085.06 329.836 1082.31 333.342C1079.81 336.848 1078.06 341.105 1076.3 345.362C1075.05 348.868 1073.55 352.374 1072.3 355.88C1070.8 360.137 1069.3 364.644 1066.79 368.4" stroke="#737B7F" stroke-width="2.9779" stroke-miterlimit="10" stroke-linecap="round" stroke-linejoin="round"/>
<path d="M496.42 1010C503.596 1010 509.413 1003.28 509.413 995C509.413 986.716 503.596 980 496.42 980C489.244 980 483.427 986.716 483.427 995C483.427 1003.28 489.244 1010 496.42 1010Z" fill="#363F44"/>
<path d="M272.544 1314.5C272.544 1318.75 269.729 1322 266.048 1322C262.367 1322 259.552 1318.75 259.552 1314.5C259.552 1310.25 262.367 1307 266.048 1307C269.729 1307 272.544 1310.25 272.544 1314.5Z" fill="#363F44"/>
<path d="M189.59 901.5C189.59 905.75 186.775 909 183.094 909C179.413 909 176.598 905.75 176.598 901.5C176.598 897.25 179.413 894 183.094 894C186.559 894 189.59 897.5 189.59 901.5Z" fill="#363F44"/>
<path d="M823.368 783.65C823.368 791.948 816.582 798.738 808.288 798.738C799.994 798.738 793.208 791.948 793.208 783.65C793.208 775.351 799.994 768.562 808.288 768.562C816.833 768.562 823.368 775.351 823.368 783.65Z" fill="#363F44"/>
<path d="M803.262 3.08818C803.262 11.3867 796.476 18.1764 788.182 18.1764C779.888 18.1764 773.102 11.3867 773.102 3.08818C773.102 -5.21032 779.888 -12 788.182 -12C796.476 -12 803.262 -5.21032 803.262 3.08818Z" fill="#363F44"/>
<path d="M656.988 200.993C656.988 205.268 653.721 208.537 649.448 208.537C645.175 208.537 641.908 205.268 641.908 200.993C641.908 196.718 645.175 193.449 649.448 193.449C653.469 193.449 656.988 196.718 656.988 200.993Z" fill="#363F44"/>
<path d="M602.449 556.069C602.449 560.344 599.182 563.613 594.91 563.613C590.637 563.613 587.37 560.344 587.37 556.069C587.37 551.794 590.637 548.525 594.91 548.525C599.182 548.525 602.449 551.794 602.449 556.069Z" fill="#363F44"/>
</g>
<defs>
<clipPath id="clip0_61_2">
<rect width="1080" height="1920" fill="white"/>
</clipPath>
</defs>
</svg>
